<svg width="532" height="532" viewBox="0 0 532 532" fill="none" xmlns="http://www.w3.org/2000/svg">
<g filter="url(#filter0_d_0_1)">
<rect x="10" y="6" width="512" height="512" rx="50" fill="url(#paint0_linear_0_1)"/>
</g>
<g filter="url(#filter1_d_0_1)">
<path fill-rule="evenodd" clip-rule="evenodd" d="M179 142C167.954 142 159 150.954 159 162V374C159 385.046 167.954 394 179 394H287.25V364C287.25 352.954 296.204 344 307.25 344H348V162C348 150.954 339.046 142 328 142H179Z" fill="#2E3856"/>
<rect x="180.375" y="220" width="145.125" height="24" rx="12" fill="#586380"/>
<rect x="180.375" y="256" width="128.25" height="24" rx="12" fill="#586380"/>
<rect x="180.375" y="292" width="106.875" height="24" rx="12" fill="#586380"/>
<path d="M267.075 198C266.862 198 266.662 197.92 266.475 197.76C266.315 197.573 266.235 197.373 266.235 197.16C266.235 197.027 266.248 196.907 266.275 196.8L275.675 171.12C275.755 170.827 275.915 170.573 276.155 170.36C276.422 170.12 276.782 170 277.235 170H283.155C283.608 170 283.955 170.12 284.195 170.36C284.462 170.573 284.635 170.827 284.715 171.12L294.075 196.8C294.128 196.907 294.155 197.027 294.155 197.16C294.155 197.373 294.062 197.573 293.875 197.76C293.715 197.92 293.515 198 293.275 198H288.355C287.955 198 287.648 197.907 287.435 197.72C287.248 197.507 287.128 197.32 287.075 197.16L285.515 193.08H274.835L273.315 197.16C273.262 197.32 273.142 197.507 272.955 197.72C272.768 197.907 272.448 198 271.995 198H267.075ZM276.475 187.32H283.915L280.155 176.76L276.475 187.32ZM305.028 196.68C304.734 196.68 304.494 196.587 304.308 196.4C304.121 196.213 304.028 195.973 304.028 195.68V188.36H296.908C296.614 188.36 296.361 188.267 296.148 188.08C295.961 187.893 295.868 187.653 295.868 187.36V184.44C295.868 184.147 295.961 183.907 296.148 183.72C296.361 183.533 296.614 183.44 296.908 183.44H304.028V176.32C304.028 176.027 304.121 175.787 304.308 175.6C304.494 175.413 304.734 175.32 305.028 175.32H308.308C308.574 175.32 308.801 175.413 308.988 175.6C309.201 175.787 309.308 176.027 309.308 176.32V183.44H316.388C316.681 183.44 316.921 183.533 317.108 183.72C317.294 183.907 317.388 184.147 317.388 184.44V187.36C317.388 187.653 317.294 187.893 317.108 188.08C316.921 188.267 316.681 188.36 316.388 188.36H309.308V195.68C309.308 195.973 309.201 196.213 308.988 196.4C308.801 196.587 308.574 196.68 308.308 196.68H305.028Z" fill="#586380"/>
</g>
<g filter="url(#filter2_d_0_1)">
<rect x="296" y="351" width="100" height="100" rx="20" fill="#F05353"/>
</g>
<path d="M320.432 434C319.728 434 319.12 433.776 318.608 433.328C318.16 432.88 317.936 432.304 317.936 431.6V424.784C317.936 424.336 318.064 423.664 318.32 422.768C318.576 421.808 319.248 420.912 320.336 420.08L330.32 410.288C335.44 406.384 339.632 403.088 342.896 400.4C346.224 397.648 348.688 395.216 350.288 393.104C351.888 390.992 352.688 389.008 352.688 387.152C352.688 384.976 352.112 383.184 350.96 381.776C349.872 380.304 347.952 379.568 345.2 379.568C343.344 379.568 341.776 379.984 340.496 380.816C339.28 381.584 338.352 382.608 337.712 383.888C337.072 385.168 336.624 386.48 336.368 387.824C336.112 388.656 335.664 389.232 335.024 389.552C334.448 389.872 333.808 390.032 333.104 390.032H321.104C320.528 390.032 320.048 389.84 319.664 389.456C319.28 389.072 319.088 388.592 319.088 388.016C319.152 384.944 319.792 382.064 321.008 379.376C322.288 376.688 324.048 374.32 326.288 372.272C328.592 370.16 331.312 368.528 334.448 367.376C337.648 366.224 341.232 365.648 345.2 365.648C350.64 365.648 355.248 366.512 359.024 368.24C362.864 369.968 365.776 372.4 367.76 375.536C369.744 378.608 370.736 382.224 370.736 386.384C370.736 389.52 370.032 392.464 368.624 395.216C367.28 397.904 365.328 400.496 362.768 402.992C360.272 405.424 357.296 407.952 353.84 410.576L345.008 419.504H369.68C370.384 419.504 370.96 419.728 371.408 420.176C371.92 420.624 372.176 421.2 372.176 421.904V431.6C372.176 432.304 371.92 432.88 371.408 433.328C370.96 433.776 370.384 434 369.68 434H320.432Z" fill="white"/>
<g filter="url(#filter3_d_0_1)">
<rect x="104" y="50" width="110" height="134" rx="20" fill="#0A092D"/>
<path d="M201 107.806C201.002 106.654 200.702 105.522 200.13 104.526C199.558 103.529 198.736 102.703 197.745 102.131L162.365 80.9178C161.345 80.3167 160.186 80 159.006 80C157.825 80 156.666 80.3167 155.646 80.9178L120.213 102.131C119.234 102.718 118.423 103.553 117.86 104.552C117.296 105.552 117 106.682 117 107.833C117 108.983 117.296 110.113 117.86 111.113C118.423 112.113 119.234 112.947 120.213 113.534L130.292 119.474V134.376C130.298 135.541 130.601 136.685 131.171 137.697C131.741 138.709 132.559 139.557 133.546 140.157L155.856 153.151C156.852 153.708 157.972 154 159.111 154C160.249 154 161.369 153.708 162.365 153.151L184.675 140.157C185.662 139.557 186.481 138.709 187.051 137.697C187.621 136.685 187.923 135.541 187.929 134.376V119.315L194.438 115.443V129.868H201V107.806ZM181.42 134.323L159.006 147.37L136.854 134.376V123.398L155.646 134.695C156.669 135.285 157.827 135.596 159.006 135.596C160.184 135.596 161.342 135.285 162.365 134.695L181.368 123.239L181.42 134.323ZM159.006 128.967L123.573 107.753L159.006 86.4864L194.438 107.7L159.006 128.967Z" fill="#586380"/>
</g>
<defs>
<filter id="filter0_d_0_1" x="0" y="0" width="532" height="532" filterUnits="userSpaceOnUse" color-interpolation-filters="sRGB">
<feFlood flood-opacity="0" result="BackgroundImageFix"/>
<feColorMatrix in="SourceAlpha" type="matrix" values="0 0 0 0 0 0 0 0 0 0 0 0 0 0 0 0 0 0 127 0" result="hardAlpha"/>
<feOffset dy="4"/>
<feGaussianBlur stdDeviation="5"/>
<feComposite in2="hardAlpha" operator="out"/>
<feColorMatrix type="matrix" values="0 0 0 0 0 0 0 0 0 0 0 0 0 0 0 0 0 0 1 0"/>
<feBlend mode="normal" in2="BackgroundImageFix" result="effect1_dropShadow_0_1"/>
<feBlend mode="normal" in="SourceGraphic" in2="effect1_dropShadow_0_1" result="shape"/>
</filter>
<filter id="filter1_d_0_1" x="149" y="140" width="209" height="272" filterUnits="userSpaceOnUse" color-interpolation-filters="sRGB">
<feFlood flood-opacity="0" result="BackgroundImageFix"/>
<feColorMatrix in="SourceAlpha" type="matrix" values="0 0 0 0 0 0 0 0 0 0 0 0 0 0 0 0 0 0 127 0" result="hardAlpha"/>
<feOffset dy="8"/>
<feGaussianBlur stdDeviation="5"/>
<feComposite in2="hardAlpha" operator="out"/>
<feColorMatrix type="matrix" values="0 0 0 0 0 0 0 0 0 0 0 0 0 0 0 0 0 0 1 0"/>
<feBlend mode="normal" in2="BackgroundImageFix" result="effect1_dropShadow_0_1"/>
<feBlend mode="normal" in="SourceGraphic" in2="effect1_dropShadow_0_1" result="shape"/>
</filter>
<filter id="filter2_d_0_1" x="286" y="349" width="120" height="120" filterUnits="userSpaceOnUse" color-interpolation-filters="sRGB">
<feFlood flood-opacity="0" result="BackgroundImageFix"/>
<feColorMatrix in="SourceAlpha" type="matrix" values="0 0 0 0 0 0 0 0 0 0 0 0 0 0 0 0 0 0 127 0" result="hardAlpha"/>
<feOffset dy="8"/>
<feGaussianBlur stdDeviation="5"/>
<feComposite in2="hardAlpha" operator="out"/>
<feColorMatrix type="matrix" values="0 0 0 0 0 0 0 0 0 0 0 0 0 0 0 0 0 0 1 0"/>
<feBlend mode="normal" in2="BackgroundImageFix" result="effect1_dropShadow_0_1"/>
<feBlend mode="normal" in="SourceGraphic" in2="effect1_dropShadow_0_1" result="shape"/>
</filter>
<filter id="filter3_d_0_1" x="94" y="48" width="130" height="154" filterUnits="userSpaceOnUse" color-interpolation-filters="sRGB">
<feFlood flood-opacity="0" result="BackgroundImageFix"/>
<feColorMatrix in="SourceAlpha" type="matrix" values="0 0 0 0 0 0 0 0 0 0 0 0 0 0 0 0 0 0 127 0" result="hardAlpha"/>
<feOffset dy="8"/>
<feGaussianBlur stdDeviation="5"/>
<feComposite in2="hardAlpha" operator="out"/>
<feColorMatrix type="matrix" values="0 0 0 0 0 0 0 0 0 0 0 0 0 0 0 0 0 0 1 0"/>
<feBlend mode="normal" in2="BackgroundImageFix" result="effect1_dropShadow_0_1"/>
<feBlend mode="normal" in="SourceGraphic" in2="effect1_dropShadow_0_1" result="shape"/>
</filter>
<linearGradient id="paint0_linear_0_1" x1="266" y1="255.5" x2="531.5" y2="535" gradientUnits="userSpaceOnUse">
<stop stop-color="#FFCD1F"/>
<stop offset="1" stop-color="#997B13"/>
</linearGradient>
</defs>
</svg>
